<?xml version="1.0" standalone="no"?>
<!DOCTYPE svg PUBLIC "-//W3C//DTD SVG 20010904//EN"
 "http://www.w3.org/TR/2001/REC-SVG-20010904/DTD/svg10.dtd">
<svg version="1.0" xmlns="http://www.w3.org/2000/svg"
 width="500.000000pt" height="500.000000pt" viewBox="0 0 500.000000 500.000000"
 preserveAspectRatio="xMidYMid meet">
<metadata>
Created by potrace 1.14, written by Peter Selinger 2001-2017
</metadata>
<g transform="translate(0.000000,500.000000) scale(0.100000,-0.100000)"
fill="#000000" stroke="none">
<path d="M3582 3724 l-22 -15 0 -1323 c0 -1015 3 -1325 12 -1334 15 -15 235
-16 258 -2 13 8 15 169 18 1330 3 1544 22 1360 -141 1360 -77 0 -108 -4 -125
-16z"/>
<path d="M3280 3490 c-85 -22 -156 -39 -158 -40 -1 0 -1 -478 0 -1062 l3
-1063 155 -37 c85 -21 161 -37 168 -38 9 0 12 234 12 1140 0 906 -3 1140 -12
1139 -7 0 -83 -18 -168 -39z"/>
<path d="M2790 3371 l-235 -56 -3 -926 -2 -925 236 -57 c130 -32 238 -56 240
-54 2 2 3 469 2 1039 l-3 1035 -235 -56z"/>
<path d="M2250 3242 l-185 -47 -3 -807 -2 -808 22 -5 c13 -3 97 -23 188 -45
91 -22 168 -40 173 -40 4 0 7 405 7 900 0 495 -3 900 -7 899 -5 0 -91 -22
-193 -47z"/>
<path d="M1760 3126 l-175 -43 0 -694 0 -694 150 -37 c83 -20 169 -40 193 -44
l42 -6 0 781 c0 737 -1 781 -17 780 -10 0 -97 -20 -193 -43z"/>
<path d="M1343 3026 c-127 -33 -161 -53 -182 -105 -8 -18 -11 -184 -9 -548 l3
-522 34 -34 c29 -31 49 -39 157 -66 68 -17 128 -31 134 -31 7 0 10 219 10 670
0 530 -3 670 -12 669 -7 0 -68 -15 -135 -33z"/>
</g>
</svg>
